<svg width="72" height="29" viewBox="0 0 72 29" fill="none" xmlns="http://www.w3.org/2000/svg">
<g clip-path="url(#clip0_522_44)">
<path d="M7.47306 3.36313C5.68253 3.36313 4.22493 4.79705 4.22493 6.5585V24.7961H5.93426V6.5585C5.93426 5.72371 6.62448 5.04469 7.47306 5.04469C8.32163 5.04469 9.01186 5.72371 9.01186 6.5585V13.828H7.47306V15.5095H9.01186V24.7961H10.7212V6.5585C10.7212 4.79705 9.26359 3.36313 7.47306 3.36313Z" fill="white"/>
<path d="M12.4305 15.3398V25.8026C12.4305 26.6374 11.7403 27.3164 10.8917 27.3164H4.0544C3.20583 27.3164 2.5156 26.6374 2.5156 25.8026V3.19537C2.5156 2.36058 3.20583 1.68156 4.0544 1.68156H10.8917C11.7403 1.68156 12.4305 2.36058 12.4305 3.19537V13.6582H14.1398V3.19537C14.1398 1.43392 12.6822 0 10.8917 0H4.0544C2.26387 0 0.806274 1.43392 0.806274 3.19537V25.8046C0.806274 27.5661 2.26387 29 4.0544 29H10.8917C12.6822 29 14.1398 27.5661 14.1398 25.8046V15.3418H12.4305V15.3398Z" fill="white"/>
<path d="M23.6812 9.77784C22.9423 9.16273 22.0896 8.88314 21.0096 8.88314C19.6454 8.88314 18.5654 10.0015 18.5654 11.3436C18.5654 12.6856 19.6454 13.804 21.0096 13.804C22.0896 13.804 22.9423 13.5244 23.6812 12.9093L23.738 12.9652V14.6987C22.9991 15.224 22.0896 15.4257 21.0117 15.4257C18.6933 15.4257 16.8074 13.5923 16.8074 11.3456C16.8074 9.09882 18.6933 7.26548 21.0117 7.26548C22.0917 7.26548 23.0011 7.46719 23.738 7.99243V9.72592L23.6812 9.78184V9.77784Z" fill="white"/>
<path d="M26.1802 7.42924L26.2371 7.48516V10.2252C26.635 10.0015 27.1466 9.83376 27.6581 9.83376C29.3634 9.83376 30.216 10.7844 30.216 12.2942V15.2L30.1592 15.2559H28.6813L28.6244 15.2V12.5718C28.6244 11.6771 28.1697 11.3416 27.4876 11.3416C27.0329 11.3416 26.5558 11.5533 26.2371 11.9008V15.198L26.1802 15.2539H24.7023L24.6455 15.198V7.48317L24.7023 7.42725H26.1802V7.42924Z" fill="white"/>
<path d="M31.8624 7.37332L32.8856 8.37986V8.4917L31.8624 9.49824H31.7487L30.7256 8.4917V8.37986L31.7487 7.37332H31.8624ZM32.5445 10.0015L32.6014 10.0574V15.2L32.5445 15.2559H31.0666L31.0098 15.2V10.0574L31.0666 10.0015H32.5445Z" fill="white"/>
<path d="M35.0436 10.0015L35.1004 10.0574V10.2252C35.4983 10.0015 36.0099 9.83376 36.5215 9.83376C38.2267 9.83376 39.0773 10.7844 39.0773 12.2942V15.2L39.0205 15.2559H37.5426L37.4857 15.2V12.5718C37.4857 11.6771 37.031 11.3416 36.3489 11.3416C35.8942 11.3416 35.4171 11.5533 35.0984 11.9008V15.198L35.0415 15.2539H33.5636L33.5068 15.198V10.0554L33.5636 9.99952H35.0415L35.0436 10.0015Z" fill="white"/>
<path d="M44.7047 10.0574V11.2876L44.6479 11.3436H44.114C44.1586 11.5233 44.1931 11.713 44.1931 11.9028C44.1931 13.0431 43.2268 13.9718 42.0331 13.9718C41.8971 13.9718 41.7489 13.9498 41.6352 13.9158C41.5784 13.9718 41.5216 14.0277 41.5216 14.1395C41.5216 14.5869 44.8164 14.2514 44.8164 16.4881C44.8164 17.6065 43.7364 18.2216 42.1468 18.2216C40.5573 18.2216 39.2479 17.8302 39.2479 16.6C39.2479 15.9848 39.6458 15.4257 40.3279 15.0901C40.1005 14.9224 39.93 14.6428 39.93 14.2514C39.93 13.8599 40.1005 13.5803 40.4416 13.3007C40.0437 12.9093 39.8731 12.5179 39.8731 11.9028C39.8731 10.7624 40.8394 9.83376 42.0331 9.83376C42.3295 9.83376 42.6239 9.90166 42.8858 10.0015H44.6479L44.7047 10.0574ZM40.8415 16.3743C40.8415 16.6539 41.1825 16.8776 42.1488 16.8776C42.8878 16.8776 43.2288 16.6539 43.2288 16.3743C43.2288 15.8151 41.9783 15.7033 41.4099 15.4796C41.081 15.7033 40.8415 15.9828 40.8415 16.3743ZM41.2962 11.9028C41.2962 12.3062 41.6251 12.6297 42.0352 12.6297C42.4452 12.6297 42.7741 12.3062 42.7741 11.9028C42.7741 11.4993 42.4452 11.1758 42.0352 11.1758C41.6251 11.1758 41.2962 11.4993 41.2962 11.9028Z" fill="white"/>
<path d="M46.749 10.0015L46.8058 10.0574V12.6836C46.8058 13.5783 47.2606 13.9138 47.9427 13.9138C48.3974 13.9138 48.8745 13.7022 49.1932 13.3547V10.0574L49.2501 10.0015H50.728L50.7848 10.0574V15.2L50.728 15.2559H49.2501L49.1932 15.2V15.0322C48.7953 15.2559 48.2837 15.4237 47.7722 15.4237C46.0669 15.4237 45.2163 14.473 45.2163 12.9632V10.0574L45.2731 10.0015H46.751H46.749Z" fill="white"/>
<path d="M52.7722 7.37332L53.7954 8.37986V8.4917L52.7722 9.49824H52.6586L51.6354 8.4917V8.37986L52.6586 7.37332H52.7722ZM53.4544 10.0015L53.5112 10.0574V15.2L53.4544 15.2559H51.9765L51.9196 15.2V10.0574L51.9765 10.0015H53.4544Z" fill="white"/>
<path d="M56.6923 8.65945L56.7492 8.72736V10.0015H59.2502V8.71537L59.3071 8.65945H60.785L60.8418 8.72736V10.0015H62.8881L62.945 10.0574V11.5113L62.8881 11.5672H60.8418V12.7975C60.8418 13.6922 61.2397 13.9158 61.6945 13.9158C62.0132 13.9158 62.4456 13.838 62.8881 13.5244L62.945 13.5803V15.0901C62.6384 15.2699 62.0578 15.4257 61.6945 15.4257C59.9892 15.4257 59.2502 14.4191 59.2502 12.9652V11.5672H56.7492V12.7975C56.7492 13.6922 57.2039 13.9158 57.545 13.9158C57.8637 13.9158 58.1702 13.8599 58.5681 13.6362L58.625 13.6922V15.202C58.3408 15.3358 57.8515 15.4257 57.545 15.4257C55.8965 15.4257 55.1576 14.4191 55.1576 12.9652V11.5672H54.2481L54.1913 11.5113V10.0574L54.2481 10.0015H55.1576V8.71537L55.2144 8.65945H56.6923Z" fill="white"/>
<path d="M64.4188 10.0015L64.5325 10.0574L65.783 12.9073L67.0336 10.0574L67.1472 10.0015H68.7957L68.8525 10.0574L65.6714 16.542C65.2166 17.3249 64.4208 17.94 62.945 17.94L62.8881 17.8621V16.542L62.945 16.4861C63.6271 16.4861 64.0818 16.2624 64.366 15.7033L64.9345 14.5849L62.7176 10.0574L62.7744 10.0015H64.4229H64.4188Z" fill="white"/>
<path d="M21.4096 15.9729L21.4664 16.0288L24.477 23.7436L24.4202 23.7995H22.6581L22.6012 23.7436L22.0328 22.1779H19.1927L18.6243 23.7436L18.5674 23.7995H16.8053L16.7485 23.7436L19.7591 16.0288L19.8159 15.9729H21.4075H21.4096ZM19.7043 20.6121H21.5232L20.6138 17.986L19.7043 20.6121Z" fill="white"/>
<path d="M26.4665 15.9729L26.5233 16.0288V21.6746C26.5233 22.1779 26.8075 22.4575 27.2054 22.4575C27.6033 22.4575 27.9444 22.3456 28.2854 22.0101L28.3423 22.066V23.6318C28.0581 23.7995 27.5465 23.9673 27.1486 23.9673C25.6707 23.9673 24.9317 23.0726 24.9317 21.7864V16.0288L24.9886 15.9729H26.4665Z" fill="white"/>
<path d="M30.3297 18.5451L30.3866 18.6011V21.2273C30.3866 22.122 30.8413 22.4575 31.5234 22.4575C31.9781 22.4575 32.4552 22.2458 32.7739 21.8983V18.6011L32.8308 18.5451H34.3087L34.3655 18.6011V23.7436L34.3087 23.7995H32.8308L32.7739 23.7436V23.5759C32.376 23.7995 31.8645 23.9673 31.3529 23.9673C29.6476 23.9673 28.795 23.0167 28.795 21.5069V18.6011L28.8518 18.5451H30.3297Z" fill="white"/>
<path d="M36.8077 18.5451L36.8645 18.6011V18.7688C37.2624 18.5451 37.6603 18.3774 38.1719 18.3774C39.0814 18.3774 39.7067 18.657 40.1046 19.1043C40.6161 18.657 41.2982 18.3774 41.9235 18.3774C43.6288 18.3774 44.3677 19.328 44.3677 20.8378V23.7436L44.3109 23.7995H42.833L42.7761 23.7436V21.1154C42.7761 20.2207 42.3214 19.8852 41.8098 19.8852C41.2982 19.8852 40.9572 20.1089 40.6161 20.4444V23.7416L40.5593 23.7975H39.0814L39.0246 23.7416V21.1134C39.0246 20.2187 38.5698 19.8832 38.0582 19.8832C37.5467 19.8832 37.2056 20.1069 36.8645 20.4424V23.7396L36.8077 23.7955H35.3298L35.273 23.7396V18.5971L35.3298 18.5411H36.8077V18.5451Z" fill="white"/>
<path d="M46.6373 18.5451L46.6942 18.6011V23.7436L46.6373 23.7995H45.1594L45.1026 23.7436V18.6011L45.1594 18.5451H46.6373Z" fill="white"/>
<path d="M49.0795 18.5451L49.1364 18.6011V18.7688C49.5343 18.5451 50.0459 18.3774 50.5574 18.3774C52.2627 18.3774 53.1153 19.328 53.1153 20.8378V23.7436L53.0585 23.7995H51.5806L51.5238 23.7436V21.1154C51.5238 20.2207 51.069 19.8852 50.3869 19.8852C49.9322 19.8852 49.4551 20.0969 49.1364 20.4444V23.7416L49.0795 23.7975H47.6016L47.5448 23.7416V18.5991L47.6016 18.5431H49.0795V18.5451Z" fill="white"/>
<path d="M58.0565 18.5451L58.1134 18.6011V21.2273C58.1134 22.122 58.5681 22.4575 59.2502 22.4575C59.705 22.4575 60.182 22.2458 60.5008 21.8983V18.6011L60.5576 18.5451H62.0355L62.0923 18.6011V23.7436L62.0355 23.7995H60.5576L60.5008 23.7436V23.5759C60.1029 23.7995 59.5913 23.9673 59.0797 23.9673C57.3744 23.9673 56.5238 23.0167 56.5238 21.5069V18.6011L56.5807 18.5451H58.0586H58.0565Z" fill="white"/>
<path d="M54.8754 15.9169L55.8986 16.9235V17.0353L54.8754 18.0419H54.7617L53.7386 17.0353V16.9235L54.7617 15.9169H54.8754ZM55.5575 18.5451L55.6144 18.6011V23.7436L55.5575 23.7995H54.0796L54.0228 23.7436V18.6011L54.0796 18.5451H55.5575Z" fill="white"/>
<path d="M64.2503 18.5451L64.3072 18.6011V18.7688C64.7051 18.5451 65.1029 18.3774 65.6145 18.3774C66.524 18.3774 67.1493 18.657 67.5472 19.1043C68.0587 18.657 68.7409 18.3774 69.3661 18.3774C71.0714 18.3774 71.8103 19.328 71.8103 20.8378V23.7436L71.7535 23.7995H70.2756L70.2188 23.7436V21.1154C70.2188 20.2207 69.764 19.8852 69.2524 19.8852C68.7409 19.8852 68.3998 20.1089 68.0587 20.4444V23.7416L68.0019 23.7975H66.524L66.4672 23.7416V21.1134C66.4672 20.2187 66.0124 19.8832 65.5008 19.8832C64.9893 19.8832 64.6482 20.1069 64.3072 20.4424V23.7396L64.2503 23.7955H62.7724L62.7156 23.7396V18.5971L62.7724 18.5411H64.2503V18.5451Z" fill="white"/>
<path d="M18.7177 25.9983L18.7359 26.0163V26.4697L18.7177 26.4876H17.5301V26.923H18.3989L18.4172 26.941V27.3943L18.3989 27.4123H17.5301V27.9535H18.7522L18.7704 27.9715V28.4248L18.7522 28.4428H17.051L17.0327 28.4248V26.0203L17.051 26.0023H18.7156L18.7177 25.9983Z" fill="white"/>
<path d="M20.5488 26.6095C20.4717 26.5056 20.3641 26.4517 20.2768 26.4517C20.1529 26.4517 20.1001 26.5216 20.1001 26.6254C20.1001 26.905 21.1456 26.905 21.1456 27.7059C21.1456 28.1233 20.7904 28.4907 20.3133 28.4907C19.9418 28.4907 19.6048 28.299 19.481 27.9495L19.889 27.6819H19.9235C20.0129 27.9156 20.1712 27.9855 20.3133 27.9855C20.4899 27.9855 20.6138 27.8816 20.6138 27.7059C20.6138 27.2885 19.5683 27.3045 19.5683 26.6254C19.5683 26.224 19.8829 25.9464 20.2768 25.9464C20.5772 25.9464 20.7721 26.0682 20.967 26.3299L20.5853 26.6095H20.5508H20.5488Z" fill="white"/>
<path d="M23.7157 25.9983L23.734 26.0163V26.4697L23.7157 26.4876H22.989V28.4228L22.9707 28.4408H22.5099L22.4916 28.4228V26.4876H21.7648L21.7466 26.4697V26.0163L21.7648 25.9983H23.7137H23.7157Z" fill="white"/>
<path d="M25.559 25.9644L25.5773 25.9824V27.0289L25.559 27.0468H25.1693L25.151 27.0289V27.0109C25.0982 27.0448 25.0272 27.0628 24.9378 27.0628C24.6536 27.0628 24.3877 26.8192 24.3877 26.5056C24.3877 26.1921 24.6536 25.9484 24.9378 25.9484C25.0272 25.9484 25.0982 25.9664 25.151 26.0003V25.9824L25.1693 25.9644H25.559ZM25.559 27.1667L25.5773 27.1846V27.5681L25.559 27.586H24.4425L24.4242 27.5681V27.1846L24.4425 27.1667H25.559ZM25.151 26.4177C25.0982 26.3478 25.0454 26.3299 24.9744 26.3299C24.8749 26.3299 24.7978 26.4058 24.7978 26.5036C24.7978 26.6015 24.8749 26.6774 24.9744 26.6774C25.0454 26.6774 25.0982 26.6594 25.151 26.5895V26.4157V26.4177Z" fill="white"/>
<path d="M28.1636 25.9983V28.4208L28.1454 28.4388H27.6845L27.6663 28.4208V26.3918L27.6845 26.3578L28.1454 25.9804L28.1636 25.9983Z" fill="white"/>
<path d="M28.9899 28.4228C29.3127 28.1932 29.6557 27.8397 29.8547 27.4822C29.7775 27.5042 29.6943 27.5161 29.6172 27.5161C29.1929 27.5161 28.8376 27.1667 28.8376 26.7493C28.8376 26.2959 29.1929 25.9464 29.6537 25.9464C30.0618 25.9464 30.5388 26.242 30.5388 26.941C30.5388 27.5501 30.0069 28.1792 29.6537 28.4408H29.0081L28.9899 28.4228ZM29.6517 26.4357C29.4913 26.4357 29.3675 26.5755 29.3675 26.7493C29.3675 26.907 29.4913 27.0289 29.6517 27.0289C29.8121 27.0289 29.9176 26.9769 30.0232 26.8711C30.0049 26.5575 29.8283 26.4357 29.6517 26.4357Z" fill="white"/>
<path d="M31.294 28.4228C31.6168 28.1932 31.9599 27.8397 32.1588 27.4822C32.0817 27.5042 31.9984 27.5161 31.9213 27.5161C31.497 27.5161 31.1418 27.1667 31.1418 26.7493C31.1418 26.2959 31.497 25.9464 31.9558 25.9464C32.3639 25.9464 32.8409 26.242 32.8409 26.941C32.8409 27.5501 32.3091 28.1792 31.9558 28.4408H31.3103L31.292 28.4228H31.294ZM31.9558 26.4357C31.7954 26.4357 31.6716 26.5755 31.6716 26.7493C31.6716 26.907 31.7954 27.0289 31.9558 27.0289C32.1162 27.0289 32.2218 26.9769 32.3273 26.8711C32.3091 26.5575 32.1324 26.4357 31.9558 26.4357Z" fill="white"/>
<path d="M33.5981 28.4228C33.9209 28.1932 34.264 27.8397 34.463 27.4822C34.3858 27.5042 34.3026 27.5161 34.2254 27.5161C33.8012 27.5161 33.4459 27.1667 33.4459 26.7493C33.4459 26.2959 33.8012 25.9464 34.26 25.9464C34.668 25.9464 35.1451 26.242 35.1451 26.941C35.1451 27.5501 34.6132 28.1792 34.26 28.4408H33.6144L33.5961 28.4228H33.5981ZM34.26 26.4357C34.0996 26.4357 33.9757 26.5755 33.9757 26.7493C33.9757 26.907 34.0996 27.0289 34.26 27.0289C34.4203 27.0289 34.5259 26.9769 34.6315 26.8711C34.6132 26.5575 34.4366 26.4357 34.26 26.4357Z" fill="white"/>
</g>
<defs>
<clipPath id="clip0_522_44">
<rect width="71" height="29" fill="white" transform="translate(0.806274)"/>
</clipPath>
</defs>
</svg>
