<svg width="96" height="25" viewBox="0 0 96 25" fill="none" xmlns="http://www.w3.org/2000/svg">
<path d="M0 13.9943V0.824566H4.85295L9.81415 11.5949H10.4275L10.0667 11.9196V0.824566H12.845V13.9943H7.95595L2.99476 3.22398H2.38137L2.74219 2.89925V13.9943H0Z" fill="white"/>
<path d="M20.1691 14.3371C19.3272 14.3371 18.5815 14.1927 17.932 13.9041C17.2946 13.6154 16.7594 13.2306 16.3264 12.7495C15.9055 12.2564 15.5807 11.7091 15.3522 11.1078C15.1357 10.4944 15.0275 9.86898 15.0275 9.23154V8.87072C15.0275 8.20923 15.1357 7.57781 15.3522 6.97645C15.5807 6.36307 15.9055 5.81583 16.3264 5.33474C16.7474 4.85366 17.2706 4.4748 17.896 4.19818C18.5334 3.90953 19.255 3.7652 20.0609 3.7652C21.1192 3.7652 22.0092 4.00575 22.7309 4.48683C23.4645 4.95589 24.0238 5.57529 24.4087 6.34502C24.7935 7.10273 24.986 7.93261 24.986 8.83464V9.80884H16.2362V8.16714H23.236L22.2979 8.92485C22.2979 8.33552 22.2137 7.83038 22.0453 7.40943C21.8769 6.98848 21.6244 6.66976 21.2876 6.45327C20.9629 6.22475 20.554 6.1105 20.0609 6.1105C19.5557 6.1105 19.1287 6.22475 18.78 6.45327C18.4312 6.68179 18.1666 7.01855 17.9862 7.46355C17.8058 7.89653 17.7156 8.43173 17.7156 9.06917C17.7156 9.6585 17.7997 10.1757 17.9681 10.6207C18.1365 11.0537 18.4011 11.3904 18.7619 11.631C19.1227 11.8715 19.5918 11.9918 20.1691 11.9918C20.6983 11.9918 21.1313 11.8895 21.468 11.6851C21.8048 11.4806 22.0333 11.228 22.1536 10.9274H24.8056C24.6612 11.5889 24.3786 12.1782 23.9576 12.6954C23.5367 13.2125 23.0075 13.6154 22.3701 13.9041C21.7326 14.1927 20.999 14.3371 20.1691 14.3371Z" fill="white"/>
<path d="M25.7454 13.9943L28.8123 8.69032L28.7401 9.14134L25.8536 4.10798H28.9747L30.7607 7.46355H31.0493L32.7271 4.10798H35.6678L32.9075 9.17742L32.9797 8.79856L36.227 13.9943H33.0879L30.9591 10.4042H30.6705L28.668 13.9943H25.7454Z" fill="white"/>
<path d="M42.1025 14.1206C41.1043 14.1206 40.2984 14.0003 39.6851 13.7598C39.0717 13.5072 38.6207 13.0923 38.332 12.515C38.0554 11.9256 37.9171 11.1318 37.9171 10.1336V1.43795H40.6051V10.2418C40.6051 10.7109 40.7254 11.0717 40.966 11.3243C41.2185 11.5648 41.5733 11.6851 42.0304 11.6851H43.4917V14.1206H42.1025ZM36.4197 6.21874V4.10798H43.4917V6.21874H36.4197Z" fill="white"/>
<path d="M0 18.6018V17.9411H4.61268V18.6018H2.67872V24.0914H1.93396V18.6018H0Z" fill="white"/>
<path d="M9.99039 24.0914V17.9411H13.7022V18.6018H10.7351V20.6799H13.51V21.3406H10.7351V23.4307H13.7502V24.0914H9.99039Z" fill="white"/>
<path d="M24.2218 19.8631H23.4771C23.433 19.6489 23.356 19.4607 23.2459 19.2985C23.1377 19.1363 23.0056 19.0002 22.8494 18.8901C22.6953 18.778 22.5241 18.6939 22.3359 18.6378C22.1477 18.5818 21.9515 18.5537 21.7473 18.5537C21.375 18.5537 21.0376 18.6478 20.7353 18.836C20.435 19.0242 20.1958 19.3015 20.0176 19.6679C19.8414 20.0343 19.7533 20.4837 19.7533 21.0162C19.7533 21.5488 19.8414 21.9982 20.0176 22.3646C20.1958 22.731 20.435 23.0083 20.7353 23.1965C21.0376 23.3847 21.375 23.4787 21.7473 23.4787C21.9515 23.4787 22.1477 23.4507 22.3359 23.3947C22.5241 23.3386 22.6953 23.2555 22.8494 23.1454C23.0056 23.0333 23.1377 22.8962 23.2459 22.734C23.356 22.5698 23.433 22.3816 23.4771 22.1694H24.2218C24.1658 22.4837 24.0637 22.765 23.9155 23.0133C23.7674 23.2615 23.5832 23.4727 23.363 23.6469C23.1427 23.8191 22.8955 23.9502 22.6212 24.0403C22.3489 24.1304 22.0576 24.1755 21.7473 24.1755C21.2228 24.1755 20.7563 24.0473 20.3479 23.7911C19.9395 23.5348 19.6182 23.1704 19.3839 22.698C19.1497 22.2255 19.0326 21.6649 19.0326 21.0162C19.0326 20.3676 19.1497 19.807 19.3839 19.3345C19.6182 18.8621 19.9395 18.4977 20.3479 18.2414C20.7563 17.9852 21.2228 17.857 21.7473 17.857C22.0576 17.857 22.3489 17.9021 22.6212 17.9922C22.8955 18.0823 23.1427 18.2144 23.363 18.3886C23.5832 18.5608 23.7674 18.771 23.9155 19.0192C24.0637 19.2655 24.1658 19.5468 24.2218 19.8631Z" fill="white"/>
<path d="M29.6536 24.0914V17.9411H30.3984V20.6799H33.6777V17.9411H34.4224V24.0914H33.6777V21.3406H30.3984V24.0914H29.6536Z" fill="white"/>
<path d="M45.0187 17.9411V24.0914H44.298L40.9466 19.2625H40.8865V24.0914H40.1418V17.9411H40.8625L44.2259 22.782H44.286V17.9411H45.0187Z" fill="white"/>
<path d="M55.9265 21.0162C55.9265 21.6649 55.8094 22.2255 55.5752 22.698C55.3409 23.1704 55.0196 23.5348 54.6112 23.7911C54.2028 24.0473 53.7363 24.1755 53.2118 24.1755C52.6872 24.1755 52.2208 24.0473 51.8124 23.7911C51.4039 23.5348 51.0826 23.1704 50.8484 22.698C50.6141 22.2255 50.497 21.6649 50.497 21.0162C50.497 20.3676 50.6141 19.807 50.8484 19.3345C51.0826 18.8621 51.4039 18.4977 51.8124 18.2414C52.2208 17.9852 52.6872 17.857 53.2118 17.857C53.7363 17.857 54.2028 17.9852 54.6112 18.2414C55.0196 18.4977 55.3409 18.8621 55.5752 19.3345C55.8094 19.807 55.9265 20.3676 55.9265 21.0162ZM55.2058 21.0162C55.2058 20.4837 55.1167 20.0343 54.9385 19.6679C54.7623 19.3015 54.5231 19.0242 54.2208 18.836C53.9205 18.6478 53.5842 18.5537 53.2118 18.5537C52.8394 18.5537 52.5021 18.6478 52.1997 18.836C51.8994 19.0242 51.6602 19.3015 51.482 19.6679C51.3058 20.0343 51.2177 20.4837 51.2177 21.0162C51.2177 21.5488 51.3058 21.9982 51.482 22.3646C51.6602 22.731 51.8994 23.0083 52.1997 23.1965C52.5021 23.3847 52.8394 23.4787 53.2118 23.4787C53.5842 23.4787 53.9205 23.3847 54.2208 23.1965C54.5231 23.0083 54.7623 22.731 54.9385 22.3646C55.1167 21.9982 55.2058 21.5488 55.2058 21.0162Z" fill="white"/>
<path d="M61.4071 24.0914V17.9411H62.1518V23.4307H65.0108V24.0914H61.4071Z" fill="white"/>
<path d="M75.342 21.0162C75.342 21.6649 75.2249 22.2255 74.9906 22.698C74.7564 23.1704 74.4351 23.5348 74.0267 23.7911C73.6182 24.0473 73.1518 24.1755 72.6272 24.1755C72.1027 24.1755 71.6362 24.0473 71.2278 23.7911C70.8194 23.5348 70.4981 23.1704 70.2638 22.698C70.0296 22.2255 69.9125 21.6649 69.9125 21.0162C69.9125 20.3676 70.0296 19.807 70.2638 19.3345C70.4981 18.8621 70.8194 18.4977 71.2278 18.2414C71.6362 17.9852 72.1027 17.857 72.6272 17.857C73.1518 17.857 73.6182 17.9852 74.0267 18.2414C74.4351 18.4977 74.7564 18.8621 74.9906 19.3345C75.2249 19.807 75.342 20.3676 75.342 21.0162ZM74.6213 21.0162C74.6213 20.4837 74.5322 20.0343 74.354 19.6679C74.1778 19.3015 73.9386 19.0242 73.6363 18.836C73.336 18.6478 72.9996 18.5537 72.6272 18.5537C72.2549 18.5537 71.9175 18.6478 71.6152 18.836C71.3149 19.0242 71.0757 19.3015 70.8975 19.6679C70.7213 20.0343 70.6332 20.4837 70.6332 21.0162C70.6332 21.5488 70.7213 21.9982 70.8975 22.3646C71.0757 22.731 71.3149 23.0083 71.6152 23.1965C71.9175 23.3847 72.2549 23.4787 72.6272 23.4787C72.9996 23.4787 73.336 23.3847 73.6363 23.1965C73.9386 23.0083 74.1778 22.731 74.354 22.3646C74.5322 21.9982 74.6213 21.5488 74.6213 21.0162Z" fill="white"/>
<path d="M85.0268 19.8631C84.9608 19.6609 84.8737 19.4797 84.7656 19.3195C84.6595 19.1574 84.5323 19.0192 84.3842 18.9051C84.238 18.791 84.0719 18.7039 83.8857 18.6438C83.6995 18.5838 83.4953 18.5537 83.273 18.5537C82.9087 18.5537 82.5773 18.6478 82.279 18.836C81.9807 19.0242 81.7435 19.3015 81.5673 19.6679C81.3911 20.0343 81.303 20.4837 81.303 21.0162C81.303 21.5488 81.3921 21.9982 81.5703 22.3646C81.7485 22.731 81.9897 23.0083 82.2941 23.1965C82.5984 23.3847 82.9407 23.4787 83.3211 23.4787C83.6735 23.4787 83.9838 23.4037 84.252 23.2535C84.5223 23.1014 84.7325 22.8871 84.8827 22.6109C85.0348 22.3326 85.1109 22.0053 85.1109 21.6289L85.3391 21.6769H83.4893V21.0162H85.8316V21.6769C85.8316 22.1834 85.7235 22.6239 85.5073 22.9983C85.2931 23.3726 84.9968 23.6629 84.6184 23.8691C84.242 24.0734 83.8096 24.1755 83.3211 24.1755C82.7765 24.1755 82.2981 24.0473 81.8856 23.7911C81.4752 23.5348 81.1549 23.1704 80.9247 22.698C80.6964 22.2255 80.5823 21.6649 80.5823 21.0162C80.5823 20.5298 80.6474 20.0923 80.7775 19.7039C80.9096 19.3135 81.0958 18.9812 81.3361 18.7069C81.5763 18.4326 81.8606 18.2224 82.1889 18.0763C82.5173 17.9301 82.8786 17.857 83.273 17.857C83.5974 17.857 83.8997 17.9061 84.18 18.0042C84.4623 18.1003 84.7135 18.2374 84.9337 18.4156C85.156 18.5918 85.3411 18.803 85.4893 19.0493C85.6374 19.2935 85.7396 19.5648 85.7956 19.8631H85.0268Z" fill="white"/>
<path d="M90.617 17.9411H91.4699L93.1756 20.812H93.2477L94.9534 17.9411H95.8063L93.584 21.5568V24.0914H92.8393V21.5568L90.617 17.9411Z" fill="white"/>
</svg>
