<svg width="90" height="25" viewBox="0 0 90 25" fill="none" xmlns="http://www.w3.org/2000/svg">
<g clip-path="url(#clip0_522_73)">
<path d="M28.3043 0.0927897L25.5287 14.7489C25.2218 16.3679 23.5655 17.4473 21.8268 17.1642C20.0881 16.8785 18.929 15.3362 19.233 13.7171L20.8978 4.92348C21.5115 1.68274 24.8269 -0.478639 28.3043 0.0927897ZM11.3521 10.7833L10.7981 13.7145C10.4912 15.3335 11.6532 16.8759 13.3919 17.1616C15.1306 17.4473 16.7869 16.3653 17.0937 14.7462L18.7586 5.95258C15.2812 5.38115 11.9657 7.54253 11.3521 10.7806V10.7833ZM10.3179 5.95522C6.84056 5.3838 3.52511 7.54517 2.91146 10.7833L2.35746 13.7145C2.05063 15.3335 3.2126 16.8759 4.95129 17.1616C6.68999 17.4473 8.34629 16.3653 8.65312 14.7462L10.3179 5.95258V5.95522ZM4.0024 19.0187C2.23814 19.0187 0.806274 20.352 0.806274 21.9949C0.806274 23.6378 2.23814 24.9711 4.0024 24.9711C5.76666 24.9711 7.19852 23.6378 7.19852 21.9949C7.19852 20.352 5.76666 19.0187 4.0024 19.0187ZM12.4402 19.0478C10.6759 19.0478 9.24404 20.3811 9.24404 22.024C9.24404 23.6669 10.6759 25.0002 12.4402 25.0002C14.2044 25.0002 15.6363 23.6669 15.6363 22.024C15.6363 20.3811 14.2044 19.0478 12.4402 19.0478Z" fill="white"/>
<path d="M31.8982 15.4074L32.9778 13.8148C33.742 14.5476 35.2477 15.2381 36.6654 15.2381C38.083 15.2381 38.8018 14.672 38.8018 13.8757C38.8018 11.8862 32.2363 13.3095 32.2363 9.43651C32.2363 7.78307 33.7647 6.35715 36.5091 6.35715C38.3529 6.35715 39.7479 6.96561 40.7365 7.78043L39.7479 9.33069C39.0944 8.64022 37.8813 8.11641 36.5318 8.11641C35.296 8.11641 34.5091 8.64022 34.5091 9.35186C34.5091 11.1534 41.0746 9.81217 41.0746 13.8333C41.0746 15.6138 39.478 16.9736 36.5546 16.9736C34.7108 16.9736 33.0232 16.4286 31.8982 15.4021V15.4074Z" fill="white"/>
<path d="M41.8047 11.6587C41.8047 8.72751 44.0974 6.35979 47.3134 6.35979C50.5295 6.35979 52.6659 8.68518 52.6659 11.8677V12.3915H44.2764C44.4554 13.9206 45.6941 15.1772 47.7396 15.1772C48.7964 15.1772 50.055 14.7804 50.8192 14.0661L51.8988 15.5106C50.8192 16.4735 49.2226 16.9762 47.4924 16.9762C44.231 16.9762 41.8019 14.8624 41.8019 11.6561L41.8047 11.6587ZM47.3134 8.16137C45.2906 8.16137 44.3673 9.60582 44.2537 10.8413H50.3704C50.3249 9.64815 49.447 8.16137 47.3106 8.16137H47.3134Z" fill="white"/>
<path d="M53.5807 16.7275V4.2672C53.5807 3.05291 54.6375 2.06878 55.9416 2.06878V16.7275H53.5807Z" fill="white"/>
<path d="M57.5751 16.7275V4.2672C57.5751 3.05291 58.632 2.06878 59.936 2.06878V16.7275H57.5751Z" fill="white"/>
<path d="M60.8934 11.6587C60.8934 8.72751 63.1861 6.35979 66.4021 6.35979C69.6181 6.35979 71.7546 8.68518 71.7546 11.8677V12.3915H63.3651C63.5441 13.9206 64.7828 15.1772 66.8283 15.1772C67.8851 15.1772 69.1437 14.7804 69.9079 14.0661L70.9875 15.5106C69.9079 16.4735 68.3113 16.9762 66.5811 16.9762C63.3196 16.9762 60.8906 14.8624 60.8906 11.6561L60.8934 11.6587ZM66.4021 8.16137C64.3793 8.16137 63.456 9.60582 63.3424 10.8413H69.459C69.4136 9.64815 68.5357 8.16137 66.3993 8.16137H66.4021Z" fill="white"/>
<path d="M86.005 6.61111L82.8345 14.1905L79.6639 6.61111H75.8058V3.15609C74.5018 3.15609 73.445 4.14021 73.445 5.3545V6.61111H71.6466V8.53704H73.445V14.381C73.445 16.0556 74.4109 16.9788 76.2348 16.9788C77.3371 16.9788 78.0332 16.7064 78.4622 16.3307L77.8996 14.6772C77.7207 14.8651 77.2917 15.0344 76.8428 15.0344C76.1695 15.0344 75.8087 14.5317 75.8087 13.8413V8.54233H77.9877L81.6015 16.8571L81.0617 18.0079C80.7463 18.6773 80.252 18.8862 79.5105 18.8862C79.2406 18.8862 78.8571 18.8228 78.6099 18.7196L78.2491 20.6878C78.5872 20.7725 79.2378 20.8333 79.5758 20.8333C81.2634 20.8122 82.5674 20.2672 83.3089 18.5503L88.5477 6.61376H86.0079L86.005 6.61111Z" fill="white"/>
<path d="M86.8346 15.5741C86.8346 14.8228 87.5136 14.1905 88.3204 14.1905C89.1273 14.1905 89.8063 14.8228 89.8063 15.5741C89.8063 16.3254 89.1273 16.9577 88.3204 16.9577C87.5136 16.9577 86.8346 16.3254 86.8346 15.5741Z" fill="white"/>
</g>
<defs>
<clipPath id="clip0_522_73">
<rect width="89" height="25" fill="white" transform="translate(0.806274)"/>
</clipPath>
</defs>
</svg>
