<svg width="573" height="573" viewBox="0 0 573 573" fill="none" xmlns="http://www.w3.org/2000/svg">
<g clip-path="url(#clip0_514_4541)">
<path d="M573 0H0V573H573V0Z" fill="#EC202C"/>
<path d="M271.697 333.199H237.89L277.761 237.89H309.133L349.004 333.199H314.672L293.185 275.087L271.697 333.199Z" fill="white"/>
<path d="M72.0068 83.897H105.002L125.296 117.131L145.59 83.897H178.585V178.537H147.07V131.647L125.248 165.311H124.723L102.901 131.647V178.537H72.1023V83.897H72.0068Z" fill="white"/>
<path d="M252.789 83.897H333.486V109.825H283.874V119.423H330.096V142.248H283.874V152.514H334.155V178.442H252.789V83.8015V83.897Z" fill="white"/>
<path d="M109.443 299.679L73.7737 238.606H109.204L125.439 269.692L141.817 238.606H176.818L141.149 299.297V333.199H109.538V299.679H109.443Z" fill="white"/>
<path d="M408.597 238.606H440.208V271.984H469.144V238.606H500.755V333.247H469.144V299.344H440.208V333.247H408.597V238.606Z" fill="white"/>
<path d="M124.389 489.103C119.9 489.103 115.842 488.674 112.213 487.814C108.631 486.955 105.384 485.761 102.472 484.185C99.6067 482.609 97.0283 480.747 94.8318 478.646C92.6353 476.545 90.6775 474.158 88.9585 471.531L109.634 454.103C111.449 456.729 113.263 458.734 115.173 460.167C117.083 461.599 119.328 462.316 121.954 462.316C124.58 462.316 126.681 461.313 128.305 459.355C129.928 457.397 130.74 454.723 130.74 451.381V392.601H161.539V450.856C161.539 457.063 160.774 462.411 159.246 466.852C157.718 471.293 155.188 475.304 151.654 478.837C148.407 482.084 144.444 484.615 139.812 486.429C135.18 488.244 130.024 489.151 124.341 489.151L124.389 489.103Z" fill="white"/>
<path d="M293.185 489.104C286.166 489.104 279.767 488.292 274.037 486.621C268.307 484.949 263.437 482.323 259.378 478.694C255.319 475.113 252.168 470.481 249.971 464.894C247.775 459.308 246.677 452.575 246.677 444.744V392.553H278.86V444.314C278.86 450.187 280.245 454.437 282.967 457.063C285.736 459.737 289.222 461.074 293.424 461.074C297.626 461.074 301.255 459.833 303.977 457.35C306.698 454.867 308.035 450.76 308.035 444.983V392.553H340.219V444.028C340.219 452.145 339.073 459.021 336.829 464.703C334.584 470.386 331.385 475.017 327.279 478.646C323.172 482.275 318.206 484.902 312.428 486.573C306.603 488.244 300.204 489.056 293.185 489.056V489.104Z" fill="white"/>
<path d="M445.316 150.938C452.622 150.938 458.4 149.362 462.697 146.258C466.995 143.154 469.096 138.188 469.096 131.312V131.026C469.096 124.198 466.947 119.184 462.697 116.08C458.4 112.976 452.622 111.401 445.316 111.401H408.406V83.8489H444.648C454.007 83.8489 462.22 84.9471 469.335 87.1436C476.402 89.3401 482.275 92.4916 486.954 96.5504C491.634 100.609 495.167 105.48 497.507 111.21C499.847 116.94 501.041 123.29 501.041 130.357V130.644C501.041 137.663 499.847 144.109 497.459 149.983C495.072 155.856 491.443 160.87 486.668 165.119C481.845 169.369 475.876 172.664 468.714 175.004C461.551 177.343 453.195 178.537 443.645 178.537H408.501V150.985H445.412L445.316 150.938Z" fill="white"/>
<path d="M445.316 459.642C452.622 459.642 458.4 458.066 462.697 454.962C466.995 451.859 469.096 446.893 469.096 440.017V439.73C469.096 432.902 466.947 427.888 462.697 424.784C458.4 421.681 452.622 420.105 445.316 420.105H408.406V392.553H444.648C454.007 392.553 462.22 393.651 469.335 395.848C476.402 398.044 482.275 401.196 486.954 405.255C491.634 409.313 495.167 414.184 497.507 419.914C499.847 425.644 501.041 431.995 501.041 439.062V439.348C501.041 446.367 499.847 452.814 497.459 458.687C495.072 464.56 491.443 469.574 486.668 473.824C481.845 478.073 475.876 481.368 468.714 483.708C461.551 486.048 453.195 487.241 443.645 487.241H408.501V459.69H445.412L445.316 459.642Z" fill="white"/>
</g>
<defs>
<clipPath id="clip0_514_4541">
<rect width="573" height="573" fill="white"/>
</clipPath>
</defs>
</svg>
